# xmcd
#
# Track frame offsets:
#   150
#   13995
#   23918
#   38235
#   52123
#   63833
#   76723
#   92638
#   102810
#   114113
#   128190
#   140175
#
# Disc length: 2024 seconds
#
# Revision: 0
# Processed by: cddbd v1.5PL3 Copyright (c) Steve Scherf et al.
# Submitted via: uFREEDB 1.6.0
#
DISCID=9907e60c
DTITLE=John McCormack - Irish Songs
DYEAR=1900
DGENRE=Folk
TTITLE0=Where The River Shannon Flows
TTITLE1=Mother O"Mine
TTITLE2=The Moon Raised Her Lamp Above
TTITLE3=My Wild Irish Rose
TTITLE4=Annie Laurie
TTITLE5=Macushla
TTITLE6=Killarney
TTITLE7=The Low Backed Car
TTITLE8=Eileen Alannah
TTITLE9=Mother Machree
TTITLE10=Molly Brannigan
TTITLE11=Wearing Of The Green
EXTD=
EXTT0=
EXTT1=
EXTT2=
EXTT3=
EXTT4=
EXTT5=
EXTT6=
EXTT7=
EXTT8=
EXTT9=
EXTT10=
EXTT11=
PLAYORDER=
